<svg width="41" height="36" viewBox="0 0 41 36" fill="none" xmlns="http://www.w3.org/2000/svg">
<path d="M33.5688 9.74999L28.888 4.43999L35.6017 3.26999L36.9342 9.14999L33.5688 9.74999ZM28.5463 10.605L23.8655 5.30999L20.5001 5.89499L25.198 11.19L28.5463 10.605ZM32.4584 19.5C34.3376 19.5 36.0801 19.95 37.5834 20.715V15H3.41673V30C3.41673 30.7956 3.77669 31.5587 4.41744 32.1213C5.05819 32.6839 5.92724 33 6.83339 33H23.5921C22.7209 31.68 22.2084 30.15 22.2084 28.5C22.2084 23.535 26.8038 19.5 32.4584 19.5ZM20.1755 12.075L15.4946 6.74999L12.1292 7.36499L16.8271 12.66L20.1755 12.075ZM7.10672 8.24999L5.43256 8.53499C4.54711 8.69434 3.76892 9.1538 3.26681 9.81371C2.76471 10.4736 2.57918 11.2807 2.75048 12.06L3.41673 15L11.7876 13.545L7.10672 8.24999ZM34.1667 27V22.5H30.7501V27H25.6251V30H30.7501V34.5H34.1667V30H39.2917V27H34.1667Z" fill="#BE0000"/>
</svg>
