<svg width="60" height="34" viewBox="0 0 60 34" fill="none" xmlns="http://www.w3.org/2000/svg">
<path d="M0.96 31V23.64H5.32V24.62H2.13V26.66H4.82V27.65H2.13V30.02H5.43V31H0.96ZM8.15609 31.14C7.21609 31.14 6.54609 30.51 6.54609 29.54C6.54609 28.36 7.54609 27.75 9.82609 27.5C9.81609 26.86 9.58609 26.3 8.78609 26.3C8.20609 26.3 7.65609 26.57 7.19609 26.87L6.76609 26.08C7.32609 25.73 8.10609 25.36 8.98609 25.36C10.3561 25.36 10.9861 26.23 10.9861 27.7V31H10.0361L9.94609 30.38H9.90609C9.40609 30.81 8.81609 31.14 8.15609 31.14ZM8.51609 30.22C8.99609 30.22 9.37609 30 9.82609 29.58V28.24C8.19609 28.43 7.65609 28.84 7.65609 29.46C7.65609 30 8.02609 30.22 8.51609 30.22ZM14.253 31.14C13.023 31.14 12.583 30.36 12.583 29.21V26.42H11.783V25.56L12.643 25.5L12.773 23.98H13.733V25.5H15.173V26.42H13.733V29.22C13.733 29.87 13.973 30.22 14.543 30.22C14.733 30.22 14.963 30.15 15.133 30.08L15.343 30.93C15.033 31.03 14.663 31.14 14.253 31.14Z" fill="#4B52C7"/>
<path d="M20.3939 31.14C18.9739 31.14 18.0839 30.24 18.0839 29.08C18.0839 26.83 21.4739 26.57 21.4739 25.04C21.4739 24.64 21.2839 24.3 20.8439 24.3C20.3439 24.3 20.0039 24.72 20.0039 25.29C20.0039 26.61 21.5439 28.37 22.9839 29.37C23.5739 29.78 24.1439 30.07 24.6239 30.19L24.3339 31.14C23.6939 30.99 22.9939 30.64 22.2839 30.13C20.6039 28.88 19.0339 26.84 19.0339 25.3C19.0339 24.3 19.7439 23.51 20.8239 23.51C21.7939 23.51 22.3839 24.13 22.3839 25.02C22.3839 26.94 19.1939 27.48 19.1939 29.01C19.1939 29.75 19.7639 30.23 20.5339 30.23C21.1239 30.23 21.6839 29.91 22.1739 29.41C22.7639 28.78 23.2239 27.96 23.4839 26.97H24.5539C24.2239 28.08 23.7139 29.09 22.9639 29.94C22.3239 30.66 21.4839 31.14 20.3939 31.14Z" fill="black"/>
<path d="M28.7805 31L27.2805 23.64H28.4805L29.1605 27.47C29.3005 28.25 29.4305 29.04 29.5605 29.84H29.6005C29.7605 29.04 29.9305 28.25 30.1005 27.47L31.0405 23.64H32.0705L33.0205 27.47C33.2005 28.24 33.3505 29.04 33.5305 29.84H33.5805C33.7005 29.04 33.8305 28.25 33.9505 27.47L34.6505 23.64H35.7605L34.3105 31H32.8705L31.8905 26.91C31.7605 26.34 31.6505 25.79 31.5505 25.23H31.5105C31.4005 25.79 31.2705 26.34 31.1605 26.91L30.1905 31H28.7805ZM37.9413 31.14C37.0013 31.14 36.3313 30.51 36.3313 29.54C36.3313 28.36 37.3313 27.75 39.6113 27.5C39.6013 26.86 39.3713 26.3 38.5713 26.3C37.9913 26.3 37.4413 26.57 36.9813 26.87L36.5513 26.08C37.1113 25.73 37.8913 25.36 38.7713 25.36C40.1413 25.36 40.7713 26.23 40.7713 27.7V31H39.8213L39.7313 30.38H39.6913C39.1913 30.81 38.6013 31.14 37.9413 31.14ZM38.3013 30.22C38.7813 30.22 39.1613 30 39.6113 29.58V28.24C37.9813 28.43 37.4413 28.84 37.4413 29.46C37.4413 30 37.8113 30.22 38.3013 30.22ZM44.0381 31.14C42.8081 31.14 42.3681 30.36 42.3681 29.21V26.42H41.5681V25.56L42.4281 25.5L42.5581 23.98H43.5181V25.5H44.9581V26.42H43.5181V29.22C43.5181 29.87 43.7581 30.22 44.3281 30.22C44.5181 30.22 44.7481 30.15 44.9181 30.08L45.1281 30.93C44.8181 31.03 44.4481 31.14 44.0381 31.14ZM48.1879 31.14C46.7079 31.14 45.5679 30.08 45.5679 28.26C45.5679 26.42 46.8379 25.36 48.2879 25.36C48.9879 25.36 49.4979 25.64 49.8879 26L49.3279 26.74C49.0279 26.48 48.7179 26.32 48.3479 26.32C47.4079 26.32 46.7579 27.09 46.7579 28.26C46.7579 29.42 47.3879 30.19 48.3079 30.19C48.7679 30.19 49.1779 29.97 49.5079 29.69L49.9779 30.46C49.4779 30.9 48.8279 31.14 48.1879 31.14ZM51.1139 31V23.04H52.2739V25.14L52.2239 26.23C52.6939 25.77 53.2539 25.36 54.0039 25.36C55.1739 25.36 55.6939 26.15 55.6939 27.54V31H54.5339V27.69C54.5339 26.73 54.2539 26.36 53.6139 26.36C53.1039 26.36 52.7539 26.62 52.2739 27.1V31H51.1139Z" fill="#BE0000"/>
<path d="M1.638 21V7.68H9.81V9.894H4.302V12.972H8.964V15.222H4.302V18.768H10.008V21H1.638ZM11.0022 21L15.2682 7.68H18.4002L22.6662 21H19.8762L17.9682 14.07C17.5722 12.684 17.1942 11.136 16.8162 9.714H16.7442C16.3842 11.154 16.0062 12.684 15.6102 14.07L13.7022 21H11.0022ZM13.6482 17.58V15.528H19.9842V17.58H13.6482ZM25.4129 21V9.894H21.6509V7.68H31.8389V9.894H28.0769V21H25.4129ZM38.7845 21.252C35.4185 21.252 32.7005 18.84 32.7005 14.394C32.7005 10.002 35.5085 7.446 38.8925 7.446C40.5845 7.446 41.9345 8.238 42.7985 9.138L41.3945 10.848C40.7105 10.182 39.9545 9.732 38.9285 9.732C36.9305 9.732 35.4185 11.46 35.4185 14.304C35.4185 17.22 36.7685 18.948 38.8925 18.948C40.0265 18.948 40.9265 18.408 41.6285 17.634L43.0325 19.308C41.9345 20.586 40.5125 21.252 38.7845 21.252ZM45.179 21V7.68H47.843V12.936H52.883V7.68H55.529V21H52.883V15.24H47.843V21H45.179Z" fill="black"/>
</svg>
